# Vectary OBJ Export units=mm
mtllib dfour.mtl
o 000_Cone_-_baked
g Cone_-_baked
usemtl Box material 1_8e6c859c-3d06-4542-9a9f-30e25adb91e2
v 0.000 0.693 -0.000
v 0.533 0.000 0.000
v -0.267 -0.000 -0.454
v -0.267 0.000 0.454
v 0.000 0.000 0.000
vt 0.50000 0.50000
vt 1.00000 0.50000
vt 0.25000 0.93301
vt 0.25000 0.06699
vt 0.50000 0.50000
vt 0.25000 0.93301
vt 1.00000 0.50000
vt 0.25000 0.06699
vn 0.79248 0.60989 -0.00000
vn 0.79248 0.60989 -0.00000
vn -0.39281 0.60462 -0.69292
vn -0.39281 0.60462 -0.69292
vn -0.39281 0.60462 -0.69292
vn -0.39281 0.60462 0.69292
vn -0.39281 0.60462 0.69292
vn -0.39281 0.60462 0.69292
vn 0.79248 0.60989 -0.00000
vn 0.00000 -1.00000 0.00000
vn 0.00000 -1.00000 0.00000
vn 0.00000 -1.00000 0.00000
vn 0.00000 -1.00000 0.00000
vn 0.00000 -1.00000 0.00000
vn 0.00000 -1.00000 0.00000
vn 0.00000 -1.00000 0.00000
vn 0.00000 -1.00000 0.00000
vn 0.00000 -1.00000 0.00000
f 1/1/1 2/2/2 3/3/3 
f 1/1/4 3/3/5 4/4/6 
f 1/1/7 4/4/8 2/2/9 
f 5/5/10 3/6/11 2/7/12 
f 5/5/13 4/8/14 3/6/15 
f 5/5/16 2/7/17 4/8/18 
