# Vectary OBJ Export units=mm
mtllib dtwelve.mtl
o 000_dtwelve
g dtwelve
usemtl Box material 1_571ce58c-d45f-43d4-a9de-c65f26a58ab6
v -0.345 0.368 -0.102
v -0.000 0.593 -0.213
v -0.000 0.369 -0.352
v -0.213 0.592 -0.058
v -0.213 0.230 -0.284
v -0.132 0.591 0.193
v -0.345 0.228 0.122
v -0.213 0.366 0.304
v 0.213 0.592 -0.058
v 0.132 0.591 0.193
v 0.345 0.368 -0.102
v 0.213 0.230 -0.284
v 0.132 0.005 -0.173
v -0.132 0.005 -0.173
v 0.213 0.366 0.304
v 0.345 0.228 0.122
v -0.213 0.004 0.078
v 0.000 0.227 0.372
v 0.000 0.003 0.233
v 0.213 0.004 0.078
vt 0.65451 0.02447
vt 0.65451 0.97553
vt 0.09549 0.79389
vt 1.00000 0.50000
vt 0.09549 0.20611
vt 0.65451 0.02447
vt 1.00000 0.50000
vt 0.09549 0.20611
vt 0.65451 0.97553
vt 0.09549 0.79389
vt 0.09549 0.20611
vt 0.65451 0.02447
vt 0.09549 0.79389
vt 1.00000 0.50000
vt 0.65451 0.97553
vt 0.65451 0.97553
vt 0.65451 0.02447
vt 1.00000 0.50000
vt 0.09549 0.20611
vt 0.09549 0.79389
vt 1.00000 0.50000
vt 0.65451 0.97553
vt 0.65451 0.02447
vt 0.09549 0.79389
vt 0.09549 0.20611
vt 1.00000 0.50000
vt 0.65451 0.97553
vt 0.09549 0.79389
vt 0.09549 0.20611
vt 0.65451 0.02447
vt 0.09549 0.20611
vt 0.65451 0.02447
vt 0.65451 0.97553
vt 0.09549 0.79389
vt 1.00000 0.50000
vt 0.65451 0.02447
vt 1.00000 0.50000
vt 0.09549 0.20611
vt 0.09549 0.79389
vt 0.65451 0.97553
vt 0.09549 0.20611
vt 0.65451 0.02447
vt 0.09549 0.79389
vt 0.65451 0.97553
vt 1.00000 0.50000
vt 1.00000 0.50000
vt 0.65451 0.97553
vt 0.09549 0.79389
vt 0.65451 0.02447
vt 0.09549 0.20611
vt 0.65451 0.97553
vt 0.09549 0.79389
vt 1.00000 0.50000
vt 0.65451 0.02447
vt 0.09549 0.20611
vt 1.00000 0.50000
vt 0.65451 0.97553
vt 0.65451 0.02447
vt 0.09549 0.79389
vt 0.09549 0.20611
vn -0.52573 0.45059 -0.72151
vn -0.52573 0.45059 -0.72151
vn -0.52573 0.45059 -0.72151
vn -0.52573 0.45059 -0.72151
vn -0.52573 0.45059 -0.72151
vn -0.85069 0.44572 0.27867
vn -0.85069 0.44572 0.27867
vn -0.85069 0.44572 0.27867
vn -0.85069 0.44572 0.27867
vn -0.85069 0.44572 0.27867
vn 0.00000 0.99999 0.00497
vn 0.00000 0.99999 0.00497
vn 0.00000 0.99999 0.00497
vn 0.00000 0.99999 0.00497
vn 0.00000 0.99999 0.00497
vn 0.52573 0.45059 -0.72151
vn 0.52573 0.45059 -0.72151
vn 0.52573 0.45059 -0.72151
vn 0.52573 0.45059 -0.72151
vn 0.52573 0.45059 -0.72151
vn -0.00000 -0.44263 -0.89670
vn -0.00000 -0.44263 -0.89670
vn -0.00000 -0.44263 -0.89670
vn -0.00000 -0.44263 -0.89670
vn -0.00000 -0.44263 -0.89670
vn 0.85069 0.44572 0.27867
vn 0.85069 0.44572 0.27867
vn 0.85069 0.44572 0.27867
vn 0.85069 0.44572 0.27867
vn 0.85069 0.44572 0.27867
vn -0.85069 -0.44572 -0.27867
vn -0.85069 -0.44572 -0.27867
vn -0.85069 -0.44572 -0.27867
vn -0.85069 -0.44572 -0.27867
vn -0.85069 -0.44572 -0.27867
vn -0.00000 0.44263 0.89670
vn -0.00000 0.44263 0.89670
vn 0.00000 0.44263 0.89670
vn 0.00000 0.44263 0.89670
vn -0.00000 0.44263 0.89670
vn -0.52573 -0.45059 0.72151
vn -0.52573 -0.45059 0.72151
vn -0.52573 -0.45059 0.72151
vn -0.52573 -0.45059 0.72151
vn -0.52573 -0.45059 0.72151
vn 0.00000 -0.99999 -0.00497
vn 0.00000 -0.99999 -0.00497
vn 0.00000 -0.99999 -0.00497
vn 0.00000 -0.99999 -0.00497
vn -0.00000 -0.99999 -0.00497
vn 0.85069 -0.44572 -0.27867
vn 0.85069 -0.44572 -0.27867
vn 0.85069 -0.44572 -0.27867
vn 0.85069 -0.44572 -0.27867
vn 0.85069 -0.44572 -0.27867
vn 0.52573 -0.45059 0.72151
vn 0.52573 -0.45059 0.72151
vn 0.52573 -0.45059 0.72151
vn 0.52573 -0.45059 0.72151
vn 0.52573 -0.45059 0.72151
f 3/3/3 5/5/5 1/1/1 
f 3/3/3 1/1/1 4/4/4
f 3/3/3 4/4/4 2/2/2 
f 1/7/7 7/9/9 8/10/10 
f 1/7/7 8/10/10 6/8/8
f 1/7/7 6/8/8 4/6/6 
f 4/12/12 6/14/14 10/15/15 
f 4/12/12 10/15/15 9/13/13 
f 4/12/12 9/13/13 2/11/11 
f 9/18/18 11/16/16 12/20/20 
f 9/18/18 12/20/20 3/19/19 
f 9/18/18 3/19/19 2/17/17 
f 13/22/22 14/24/24 5/25/25 
f 13/22/22 5/25/25 3/23/23
f 13/22/22 3/23/23 12/21/21 
f 15/27/27 16/28/28 11/29/29 
f 15/27/27 11/29/29 9/30/30 
f 15/27/27 9/30/30 10/26/26 
f 5/32/32 14/35/35 17/33/33 
f 5/32/32 17/33/33 7/34/34 
f 5/32/32 7/34/34 1/31/31 
f 8/37/37 18/40/40 15/39/39 
f 8/37/37 15/39/39 10/38/38
f 8/37/37 10/38/38 6/36/36 
f 7/42/42 17/45/45 19/44/44 
f 7/42/42 19/44/44 18/43/43
f 7/42/42 18/43/43 8/41/41 
f 20/47/47 19/48/48 17/50/50 
f 20/47/47 17/50/50 14/49/49
f 20/47/47 14/49/49 13/46/46 
f 20/52/52 13/55/55 12/54/54 
f 20/52/52 12/54/54 11/53/53
f 20/52/52 11/53/53 16/51/51 
f 18/57/57 19/59/59 20/60/60 
f 18/57/57 20/60/60 16/58/58
f 18/57/57 16/58/58 15/56/56 
